<?xml version="1.0" encoding="utf-8"?>
<!-- Generator: Adobe Illustrator 23.1.1, SVG Export Plug-In . SVG Version: 6.00 Build 0)  -->
<svg version="1.1" id="Layer_1" xmlns="http://www.w3.org/2000/svg" xmlns:xlink="http://www.w3.org/1999/xlink" x="0px" y="0px"
	 viewBox="0 0 441.4 94.1" style="enable-background:new 0 0 441.4 94.1;" xml:space="preserve">
<style type="text/css">
	.st0{fill:#FFFFFF;}
	.st1{enable-background:new    ;}
	.st2{fill:none;stroke:#FFFFFF;stroke-width:2;stroke-miterlimit:10;}
</style>
<title>logo</title>
<g>
	<g id="Layer_1-2">
		<path class="st0" d="M104.6-119.2c-2.7-0.7-5.3-1.8-7.6-3.4l3.4-7.8c2,1.3,4.2,2.3,6.6,2.9c2.3,0.7,4.7,1,7.1,1
			c1.9,0.1,3.8-0.2,5.5-1c1.1-0.5,1.9-1.6,1.9-2.8c0-1.1-0.7-2.2-1.7-2.6c-2.1-1-4.3-1.6-6.6-2c-3.2-0.6-6.4-1.6-9.4-3
			c-1.9-0.9-3.6-2.3-4.7-4.1c-1-1.8-1.4-3.8-1.4-5.8c0-2.5,0.7-5,2.2-7c1.6-2.2,3.7-3.8,6.2-4.9c2.9-1.2,6.1-1.8,9.2-1.8
			c3,0,6,0.4,8.9,1.3c2.4,0.6,4.7,1.8,6.7,3.3l-3.4,7.8c-3.6-2.6-7.8-4-12.2-4c-1.7-0.1-3.5,0.3-5,1.2c-1.1,0.6-1.9,1.8-1.9,3.1
			c0,0.7,0.2,1.3,0.7,1.9c0.7,0.6,1.6,1.1,2.5,1.4c1.8,0.6,3.6,1.1,5.4,1.4c3.2,0.6,6.2,1.6,9.1,3c1.9,0.9,3.6,2.4,4.7,4.2
			c1,1.7,1.4,3.6,1.4,5.6c0.1,3.9-1.7,7.5-4.8,9.8c-3.2,2.3-7.7,3.5-13.6,3.5C110.8-117.9,107.6-118.3,104.6-119.2z"/>
		<path class="st0" d="M147.8-118.4v-42.3h11.1v42.3H147.8z"/>
		<path class="st0" d="M203.3-160.7h10.4v42.3h-8.2L186-142.6v24.2h-10.3v-42.3h8.1l19.5,24.2V-160.7z"/>
		<path class="st0" d="M268.2-142.3v21.2c-2.4,1.1-4.9,1.9-7.5,2.4c-2.8,0.6-5.7,0.8-8.7,0.8c-4.2,0.1-8.3-0.8-12.1-2.6
			c-3.3-1.6-6-4.3-7.8-7.5c-1.9-3.6-2.8-7.6-2.7-11.6c-0.1-4,0.8-7.9,2.7-11.5c1.8-3.2,4.4-5.9,7.7-7.6c3.6-1.8,7.6-2.7,11.7-2.6
			c3,0,5.9,0.4,8.7,1.2c2.4,0.6,4.7,1.8,6.6,3.3l-3.5,7.8c-1.8-1.2-3.7-2.1-5.7-2.8c-1.9-0.6-3.8-0.9-5.8-0.8
			c-3.8,0-6.7,1.1-8.6,3.2c-1.9,2.1-2.8,5.4-2.8,9.8c0,4.5,1,7.9,2.9,10.1c2,2.2,5,3.3,9,3.3c1.9,0,3.9-0.2,5.7-0.6v-7.8h-7.5v-7.6
			H268.2z"/>
		<path class="st0" d="M317-118.4l-3.8-8.8h-18.8l-3.8,8.8h-11.2l19.9-42.3h8.8l19.9,42.3H317z M297.9-135.4h11.7l-5.8-13.6
			L297.9-135.4z"/>
		<path class="st0" d="M339.6-160.7h20.6c4.7,0,8.4,1.2,11,3.6c2.6,2.4,3.9,5.7,3.9,9.9c0,4.2-1.3,7.5-4,9.9
			c-2.7,2.4-6.3,3.6-11,3.6h-9.5v15.3h-11.1V-160.7z M358.8-142c1.6,0.1,3.2-0.3,4.6-1.3c1.1-1,1.6-2.4,1.5-3.9
			c0.1-1.5-0.4-2.9-1.5-3.9c-1.3-1-2.9-1.4-4.6-1.3h-8v10.4H358.8z"/>
		<path class="st0" d="M394.2-122.6c-3.2-3.1-4.8-7.7-4.8-13.7v-24.5h10.9v24.9c0,3,0.7,5.4,2,7c3.3,3.3,8.6,3.3,11.8,0c0,0,0,0,0,0
			c1.4-1.6,2.1-4,2-7v-24.9h11v24.5c0,6-1.6,10.5-4.9,13.7c-3.2,3.1-7.9,4.7-14.1,4.7C402.1-117.9,397.4-119.5,394.2-122.6z"/>
		<path class="st0" d="M482.1-118.4h-12.2l-7.4-13.5c-0.9-1.6-2.6-2.5-4.4-2.3h-3.4v15.8h-10.9v-42.3H464c5.2,0,9,1.1,11.6,3.3
			c2.6,2.2,3.9,5.4,3.9,9.6c0.1,2.9-0.9,5.8-2.7,8.1c-1.9,2.3-4.6,3.9-7.5,4.5c2.6,0.6,4.7,2.4,5.9,4.7L482.1-118.4z M467.6-143.7
			c1.1-0.9,1.7-2.3,1.6-3.7c0.1-1.5-0.5-2.9-1.6-3.8c-1.1-0.8-2.8-1.2-5.3-1.2h-7.7v9.8h7.7C464.8-142.6,466.5-142.9,467.6-143.7z"
			/>
		<path class="st0" d="M527.3-118.4l-3.8-8.8h-18.9l-3.8,8.8h-11.2l19.9-42.3h8.8l20,42.3H527.3z M508.2-135.4H520l-5.9-13.6
			L508.2-135.4z"/>
		<g class="st1">
			<path class="st0" d="M181.9-178.2l13.8-29.1l13.7,29.1h-5.3l-2.5-5.4h-12l-2.5,5.4H181.9z M191.5-187.9h8.2l-4.1-9.1L191.5-187.9
				z"/>
		</g>
		<g class="st1">
			<path class="st0" d="M216.6-178.2V-206h9.9c4.6,0,8.2,1.3,10.7,3.9c2.6,2.6,3.9,5.9,3.9,10.1s-1.3,7.5-3.8,10
				c-2.6,2.5-6.1,3.8-10.7,3.8H216.6z M221.6-182.7h4.6c6.9,0,9.9-3.6,9.9-9.3c0-5.9-3-9.5-10-9.5h-4.6V-182.7z"/>
		</g>
		<g class="st1">
			<path class="st0" d="M245.1-178.2l13.8-29.1l13.7,29.1h-5.3l-2.5-5.4h-12l-2.5,5.4H245.1z M254.7-187.9h8.2l-4.1-9.1L254.7-187.9
				z"/>
		</g>
		<g class="st1">
			<path class="st0" d="M291.9-178.2l13.8-29.1l13.7,29.1H314l-2.5-5.4h-12l-2.5,5.4H291.9z M301.5-187.9h8.2l-4.1-9.1L301.5-187.9z
				"/>
		</g>
		<g class="st1">
			<path class="st0" d="M326.6-178.2V-206h10.6c2.4,0,4.5,0.8,6.3,2.5s2.8,3.9,2.8,6.5c0,2.6-0.9,4.7-2.8,6.5
				c-1.8,1.7-3.9,2.6-6.3,2.6h-5.6v9.7H326.6z M331.6-192.4h5.4c2.2,0,4.3-1.6,4.3-4.5c0-2.9-2.1-4.5-4.3-4.5h-5.4V-192.4z"/>
		</g>
		<g class="st1">
			<path class="st0" d="M348.8-178.2l13.8-29.1l13.7,29.1h-5.3l-2.5-5.4h-12l-2.5,5.4H348.8z M358.4-187.9h8.2l-4.1-9.1L358.4-187.9
				z"/>
		</g>
		<g class="st1">
			<path class="st0" d="M400.3-178.2V-206h9.9c4.6,0,8.2,1.3,10.7,3.9c2.6,2.6,3.9,5.9,3.9,10.1s-1.3,7.5-3.8,10
				c-2.6,2.5-6.1,3.8-10.7,3.8H400.3z M405.3-182.7h4.6c6.9,0,9.9-3.6,9.9-9.3c0-5.9-3-9.5-10-9.5h-4.6V-182.7z"/>
			<path class="st0" d="M432.9-178.2V-206h5v27.8H432.9z"/>
		</g>
		<line class="st2" x1="172.3" y1="-192.8" x2="102.8" y2="-192.8"/>
		<line class="st2" x1="522.8" y1="-192.8" x2="453.3" y2="-192.8"/>
	</g>
</g>
</svg>
